PathFileType	4	(X/Y/Z)	/Users/itak/Documents/Research/Walk-IL/dataset/trc/00255_00009.trc
DataRate	CameraRate	NumFrames	NumMarkers	Units	OrigDataRate	OrigDataStartFrame	OrigNumFrames
100.000000	100.000000	4	53	mm	100.000000	477	546
Frame#	Time	RPSI			LPSI			L3			STRN			T10			C7			CLAV			RBAK			LBAK			LSHO			LUPA			LAEL			LAOL			LWTS			LWPS			LFRA			LIFD			LHPS			LHTS			RSHO			RUPA			RAEL			RAOL			RWTS			RWPS			RFRA			RIFD			RHTS			RHPS			RBHD			LFHD			RFHD			LBHD			LHIP			RHIP			RASI			LASI			LKNE			LTHI			LANK			LTIP			LTOE			LMT1			LMT5			LHEE			RKNE			RTHI			RANK			RTIP			RTOE			RMT1			RMT5			RHEE			
		X1	Y1	Z1	X2	Y2	Z2	X3	Y3	Z3	X4	Y4	Z4	X5	Y5	Z5	X6	Y6	Z6	X7	Y7	Z7	X8	Y8	Z8	X9	Y9	Z9	X10	Y10	Z10	X11	Y11	Z11	X12	Y12	Z12	X13	Y13	Z13	X14	Y14	Z14	X15	Y15	Z15	X16	Y16	Z16	X17	Y17	Z17	X18	Y18	Z18	X19	Y19	Z19	X20	Y20	Z20	X21	Y21	Z21	X22	Y22	Z22	X23	Y23	Z23	X24	Y24	Z24	X25	Y25	Z25	X26	Y26	Z26	X27	Y27	Z27	X28	Y28	Z28	X29	Y29	Z29	X30	Y30	Z30	X31	Y31	Z31	X32	Y32	Z32	X33	Y33	Z33	X34	Y34	Z34	X35	Y35	Z35	X36	Y36	Z36	X37	Y37	Z37	X38	Y38	Z38	X39	Y39	Z39	X40	Y40	Z40	X41	Y41	Z41	X42	Y42	Z42	X43	Y43	Z43	X44	Y44	Z44	X45	Y45	Z45	X46	Y46	Z46	X47	Y47	Z47	X48	Y48	Z48	X49	Y49	Z49	X50	Y50	Z50	X51	Y51	Z51	X52	Y52	Z52	X53	Y53	Z53	

478	4.77	-32.17308044433594	1046.115844726562	615.1356811523438	88.21753692626953	1050.212280273438	612.6640625	42.63374710083008	1124.402465820312	605.0157470703125	53.66188430786133	1317.952026367188	848.8981323242188	31.88055801391602	1251.384887695312	601.0918579101562	36.711181640625	1515.644287109375	652.5100708007812	50.20259094238281	1434.105834960938	819.6214599609375	-43.13586807250977	1372.239135742188	590.2119140625	144.2602691650391	1475.703735351562	623.4022216796875	208.0443420410156	1477.782958984375	706.6730346679688	280.8057250976562	1358.189819335938	670.8948974609375	311.9535827636719	1148.352294921875	684.2213745117188	257.1602172851562	1131.271118164062	618.0197143554688	265.9394226074219	913.6378173828125	781.71630859375	342.4419250488281	898.1178588867188	746.7378540039062	328.6646728515625	1041.5888671875	705.39111328125	273.1751708984375	719.4920654296875	778.6152954101562	339.6495361328125	809.197998046875	762.1007080078125	290.7483520507812	812.0806884765625	809.6943969726562	-127.6104736328125	1478.598022460938	726.6566772460938	-196.9286804199219	1414.137939453125	716.7584228515625	-243.5272064208984	1132.562255859375	715.7304077148438	-157.6090240478516	1121.239624023438	675.0615844726562	-181.9048156738281	947.5673828125	882.63330078125	-249.2142028808594	920.302001953125	838.2461547851562	-252.656982421875	1067.101196289062	751.9039916992188	-166.0882110595703	761.397216796875	937.572021484375	-188.3122406005859	836.9195556640625	945.9049072265625	-241.4499969482422	823.7362670898438	897.7959594726562	-8.251729965209961	1676.748413085938	704.615478515625	92.45381927490234	1711.742065429688	905.3382568359375	-7.425817489624023	1707.567504882812	908.1312866210938	125.7539215087891	1685.741333007812	746.075439453125	223.2094421386719	984.4637451171875	703.8597412109375	-145.0531158447266	1002.442199707031	722.7219848632812	-97.23513793945312	1048.93359375	810.2825927734375	184.3319702148438	1031.85400390625	810.9989624023438	190.17578125	510.5628662109375	827.1836547851562	219.0967559814453	649.5687255859375	794.3999633789062	180.5391235351562	35.79691696166992	710.1398315429688	195.8828125	285.3729553222656	763.639404296875	139.9088439941406	47.83624267578125	927.5167846679688	92.27930450439453	43.09399032592773	862.7703857421875	205.7749176025391	35.42863082885742	836.48583984375	124.7213973999023	42.46147537231445	653.22509765625	-79.87507629394531	516.6748046875	788.4019775390625	-131.1051788330078	783.1756591796875	785.540771484375	-43.69243240356445	36.96976470947266	699.6668701171875	-56.74864959716797	395.3537902832031	794.2557983398438	13.12082099914551	42.55842590332031	909.2274169921875	51.54855346679688	38.36283493041992	848.5916137695312	-64.19307708740234	38.04544067382812	810.677001953125	9.625503540039062	34.35951614379883	634.0589599609375	
479	4.78	-31.14082145690918	1045.794311523438	616.93701171875	89.28511047363281	1049.805297851562	614.7283325195312	44.06442642211914	1123.718505859375	606.77001953125	54.33719253540039	1317.911376953125	850.3575439453125	33.69845962524414	1250.720825195312	602.3169555664062	38.40381622314453	1515.197631835938	653.4048461914062	50.99637985229492	1433.949340820312	820.7875366210938	-40.98604965209961	1371.550048828125	591.01904296875	146.1783294677734	1475.129638671875	624.9305419921875	209.4864501953125	1477.323120117188	708.5570678710938	282.5700378417969	1357.568603515625	674.0530395507812	313.637451171875	1147.77294921875	689.7449951171875	259.7522888183594	1130.15087890625	622.9676513671875	266.4335327148438	913.7996215820312	788.42529296875	343.4020690917969	898.052978515625	754.5413208007812	330.0933227539062	1041.1943359375	711.955810546875	273.8199768066406	719.6754760742188	787.1435546875	340.4940795898438	809.2948608398438	770.6876220703125	290.9745178222656	812.5693359375	817.6079711914062	-126.3285369873047	1478.085571289062	726.797119140625	-195.4960479736328	1413.517578125	716.7301635742188	-241.9569854736328	1131.890502929688	715.9526977539062	-155.95849609375	1120.609741210938	675.6248168945312	-181.1525726318359	946.2538452148438	882.4579467773438	-248.3578338623047	919.2857055664062	837.8046875	-251.2229766845703	1066.287475585938	751.9122924804688	-165.8142547607422	759.8474731445312	936.739013671875	-187.96630859375	835.3946533203125	945.2840576171875	-241.2477874755859	822.595458984375	896.9867553710938	-7.015406131744385	1676.347045898438	705.26171875	92.78346252441406	1711.818115234375	906.3626098632812	-7.124277114868164	1707.552490234375	908.7383422851562	126.7783203125	1685.630615234375	747.28759765625	224.1096038818359	983.8328857421875	706.2696533203125	-143.9925842285156	1002.52587890625	724.343994140625	-96.3763427734375	1049.01904296875	812.04931640625	185.0747528076172	1031.246337890625	813.2196044921875	190.0991973876953	509.7835388183594	827.3504028320312	219.10498046875	648.8279418945312	795.2465209960938	180.3463287353516	35.85963821411133	710.3702392578125	195.5442810058594	284.6067199707031	764.0444946289062	139.2575073242188	45.8833122253418	928.2932739257812	91.76115417480469	41.85100936889648	863.2252807617188	205.7164306640625	35.18010711669922	836.8200073242188	124.330078125	42.17918395996094	653.4406127929688	-79.42767333984375	516.5265502929688	790.1961669921875	-130.8405914306641	782.9755249023438	787.1840209960938	-43.6125602722168	37.04643630981445	699.7048950195312	-56.39351654052734	395.130615234375	795.8350830078125	13.10094547271729	42.55799102783203	909.2266845703125	51.52857208251953	38.35834121704102	848.5927734375	-64.16748809814453	38.03975677490234	810.6829223632812	9.696154594421387	34.49547576904297	634.0531616210938	
480	4.79	-30.21622848510742	1045.483276367188	618.6646118164062	90.237060546875	1049.4921875	616.6632080078125	45.39255523681641	1123.123413085938	608.4859008789062	55.0190315246582	1317.945190429688	851.7417602539062	35.49798583984375	1250.1689453125	603.458984375	40.0800666809082	1514.828125	654.26220703125	51.80367279052734	1433.870361328125	821.8889770507812	-38.80177307128906	1370.936279296875	591.75927734375	148.0903015136719	1474.660278320312	626.3983764648438	210.9354553222656	1476.955200195312	710.3729248046875	284.3118286132812	1357.043823242188	677.1689453125	315.2559814453125	1147.325805664062	695.3199462890625	262.3194274902344	1129.14404296875	627.9671020507812	266.8758850097656	914.0918579101562	795.0941772460938	344.2826232910156	898.1356811523438	762.3735961914062	331.4446105957031	1040.944702148438	718.56201171875	274.4067687988281	720.000244140625	795.65185546875	341.2800598144531	809.5469360351562	779.2985229492188	291.1192626953125	813.1883544921875	825.5184936523438	-125.0430068969727	1477.607421875	726.8760986328125	-194.0456390380859	1412.913208007812	716.6110229492188	-240.3043518066406	1131.231201171875	716.0443115234375	-154.1907653808594	1120.015502929688	676.0934448242188	-180.4339294433594	944.857421875	882.0635986328125	-247.5240936279297	918.2364501953125	837.0863647460938	-249.6759796142578	1065.48779296875	751.808349609375	-165.6516876220703	758.1966552734375	935.6207885742188	-187.6844482421875	833.7661743164062	944.3833618164062	-241.1432037353516	821.4490966796875	895.8618774414062	-5.733724594116211	1676.007690429688	705.8390502929688	93.17449951171875	1711.996459960938	907.3007202148438	-6.758446216583252	1707.646118164062	909.2530517578125	127.8527450561523	1685.566284179688	748.4161987304688	225.0228271484375	983.3739624023438	708.5269165039062	-142.9405212402344	1002.605712890625	725.8916015625	-95.52347564697266	1049.104248046875	813.7449340820312	185.8306732177734	1030.810546875	815.2874145507812	190.1204833984375	509.1946105957031	827.4346923828125	219.1540832519531	648.3441772460938	796.1287841796875	180.2846984863281	35.91788864135742	710.2962036132812	195.3984527587891	284.0956115722656	764.2113037109375	138.8434906005859	44.54497528076172	928.59375	91.50151824951172	41.02801513671875	863.298095703125	205.7965240478516	35.04658508300781	836.7679443359375	124.156982421875	42.04723739624023	653.3392944335938	-78.90650177001953	516.382568359375	792.1337280273438	-130.5444488525391	782.7672729492188	788.8692016601562	-43.53076171875	37.1427116394043	699.7552490234375	-55.96779632568359	394.9142761230469	797.527587890625	13.08576774597168	42.55514144897461	909.233154296875	51.51894378662109	38.35556030273438	848.602783203125	-64.12700653076172	38.03412246704102	810.6947021484375	9.753186225891113	34.66960144042969	634.0494384765625	
481	4.8	-29.39797782897949	1045.1943359375	620.323974609375	91.07312774658203	1049.287353515625	618.4808349609375	46.60103225708008	1122.651489257812	610.1724853515625	55.70278167724609	1318.064208984375	853.0496215820312	37.24500274658203	1249.752563476562	604.5386352539062	41.72739028930664	1514.551025390625	655.0877685546875	52.62014007568359	1433.887573242188	822.928466796875	-36.61446762084961	1370.4267578125	592.4429931640625	149.9815521240234	1474.31201171875	627.8085327148438	212.3679351806641	1476.702880859375	712.1251831054688	286.0126953125	1356.646362304688	680.2380981445312	316.7916564941406	1147.045654296875	700.9247436523438	264.8469543457031	1128.284790039062	633.0018920898438	267.2535400390625	914.5435791015625	801.6911010742188	345.0744018554688	898.4042358398438	770.2255249023438	332.7052612304688	1040.87548828125	725.1918334960938	274.9385070800781	720.4989624023438	804.0943603515625	341.9991760253906	809.9863891601562	787.9111938476562	291.1726379394531	813.9644165039062	833.401611328125	-123.763069152832	1477.2001953125	726.9137573242188	-192.5951538085938	1412.366943359375	716.4197998046875	-238.5666656494141	1130.630859375	716.0206298828125	-152.3027648925781	1119.503662109375	676.481689453125	-179.7476959228516	943.4076538085938	881.4479370117188	-246.7130432128906	917.1896362304688	836.0859375	-248.0069580078125	1064.740600585938	751.6011962890625	-165.6073455810547	756.465576171875	934.1891479492188	-187.4796600341797	832.053466796875	943.188720703125	-241.1057434082031	820.31591796875	894.4261474609375	-4.414514541625977	1675.7490234375	706.3640747070312	93.63699340820312	1712.271484375	908.163330078125	-6.316640853881836	1707.84521484375	909.6956787109375	128.9757843017578	1685.556518554688	749.4662475585938	225.9405517578125	983.126708984375	710.635986328125	-141.924072265625	1002.693664550781	727.3679809570312	-94.69705200195312	1049.200561523438	815.371337890625	186.5912780761719	1030.586669921875	817.2069702148438	190.2355499267578	508.8078308105469	827.4047241210938	219.2659759521484	648.1367797851562	797.0125122070312	180.3214263916016	35.93404006958008	710.0946044921875	195.4447479248047	283.7950439453125	764.2588500976562	138.59765625	43.70519256591797	928.6253051757812	91.43073272705078	40.54316329956055	863.1788940429688	205.9614562988281	34.98025512695312	836.5210571289062	124.1840286254883	42.0296516418457	653.1181030273438	-78.32178497314453	516.25244140625	794.1942138671875	-130.2082214355469	782.564453125	790.604736328125	-43.44831085205078	37.26628112792969	699.8182373046875	-55.48876953125	394.7167053222656	799.3096923828125	13.0739688873291	42.54890060424805	909.248779296875	51.5152473449707	38.35799026489258	848.624755859375	-64.07118225097656	38.02710342407227	810.714599609375	9.7957763671875	34.89244842529297	634.0508422851562	
